<svg width="74" height="74" viewBox="0 0 74 74" fill="none" xmlns="http://www.w3.org/2000/svg">
<path fill-rule="evenodd" clip-rule="evenodd" d="M57.1789 32.8064V50.4684L36.9949 60.5591L16.8108 50.4684V32.8064L36.9949 22.7129L57.1789 32.8064Z" fill="url(#paint0_linear_32_291)"/>
<path fill-rule="evenodd" clip-rule="evenodd" d="M36.9949 22.7129V60.5591L16.8108 50.4684V32.8064L36.9949 22.7129Z" fill="url(#paint1_linear_32_291)"/>
<path fill-rule="evenodd" clip-rule="evenodd" d="M64.75 23.9743L57.1786 32.8039L36.9944 22.7133L44.5631 13.8809L64.75 23.9743Z" fill="url(#paint2_linear_32_291)"/>
<path fill-rule="evenodd" clip-rule="evenodd" d="M9.25 23.9685L16.8215 32.7982L37.0057 22.7075L29.437 13.875L9.25 23.9685Z" fill="url(#paint3_linear_32_291)"/>
<path d="M23.125 26.5938C23.125 21.4851 27.2663 17.3438 32.375 17.3438H41.625C46.7337 17.3438 50.875 21.4851 50.875 26.5938V35.8438C50.875 40.9524 46.7337 45.0938 41.625 45.0938H32.375C27.2663 45.0938 23.125 40.9524 23.125 35.8438V26.5938Z" fill="#107C10"/>
<path fill-rule="evenodd" clip-rule="evenodd" d="M33.831 24.5937C34.5084 24.777 35.4164 25.1364 35.8487 25.3924C36.3844 25.7096 36.617 25.8536 36.8418 25.8425C37.0307 25.8332 37.2143 25.7144 37.5675 25.4968C38.4491 24.9538 40.6513 24.2867 41.1567 24.4095C41.3837 24.4646 41.0062 24.2323 40.3178 23.8934C38.5492 23.0227 36.1753 22.8806 34.1696 23.5254C33.4034 23.7718 32.7366 24.038 32.6878 24.1168C32.6391 24.1957 33.1535 24.4103 33.831 24.5937ZM43.481 35.8234C43.4589 34.2196 42.2038 31.7961 39.9315 28.9699L38.8329 27.6037L39.8178 26.7C40.3595 26.2029 41.1292 25.6213 41.5282 25.4077L42.2539 25.019L43.0576 25.8024C43.4998 26.2332 44.1452 27.1608 44.4919 27.8636C45.0353 28.9647 45.1318 29.3926 45.1903 30.957C45.2687 33.0552 44.9494 34.4099 44.0645 35.732L43.4917 36.5879L43.481 35.8234ZM28.7191 28.7571C27.9405 30.8072 28.3599 33.9652 29.6657 35.8831C30.1805 36.639 30.2977 36.7166 30.1307 36.1907C29.8 35.1485 31.5097 31.7172 33.7296 28.968L34.8342 27.5998L33.8026 26.6758C33.2353 26.1677 32.4718 25.5907 32.106 25.3938C31.4906 25.0623 31.4049 25.0593 30.9576 25.3524C30.3382 25.7581 29.2015 27.4873 28.7191 28.7571ZM30.6143 36.7291C30.6143 37.5034 32.8473 38.9376 34.85 39.4495C36.9835 39.9948 39.9754 39.4123 41.8052 38.0953C43.3223 37.0033 43.3733 36.6184 42.2296 34.8918C41.5248 33.8277 38.3742 30.5644 37.3896 29.8785L36.7628 29.4419L35.3651 30.6479C32.8808 32.7915 30.6143 35.6926 30.6143 36.7291Z" fill="white"/>
<path fill-rule="evenodd" clip-rule="evenodd" d="M57.1786 50.4669L36.9944 60.5604V42.8982L57.1786 32.8047V50.4669Z" fill="url(#paint4_linear_32_291)"/>
<path fill-rule="evenodd" clip-rule="evenodd" d="M16.8074 50.4669L36.9943 60.5604V42.8982L16.8074 32.8047V50.4669Z" fill="url(#paint5_linear_32_291)"/>
<path fill-rule="evenodd" clip-rule="evenodd" d="M57.1786 32.8047L64.75 39.1124L44.5631 49.2059L36.9944 42.8982L57.1786 32.8047Z" fill="url(#paint6_linear_32_291)"/>
<path fill-rule="evenodd" clip-rule="evenodd" d="M16.8215 32.7988L9.25 39.1065L29.437 49.2L37.0057 42.8923L16.8215 32.7988Z" fill="url(#paint7_linear_32_291)"/>
<defs>
<linearGradient id="paint0_linear_32_291" x1="49.8482" y1="53.6783" x2="49.8482" y2="29.5786" gradientUnits="userSpaceOnUse">
<stop stop-color="#2F2F2E"/>
<stop offset="1" stop-color="#2D2D2D"/>
</linearGradient>
<linearGradient id="paint1_linear_32_291" x1="34.3024" y1="55.5121" x2="34.3024" y2="27.7575" gradientUnits="userSpaceOnUse">
<stop stop-color="#1A1A1A"/>
<stop offset="1" stop-color="#242423"/>
</linearGradient>
<linearGradient id="paint2_linear_32_291" x1="61.5322" y1="33.0701" x2="69.7693" y2="10.6724" gradientUnits="userSpaceOnUse">
<stop stop-color="#5F5E5D"/>
<stop offset="1" stop-color="#484848"/>
</linearGradient>
<linearGradient id="paint3_linear_32_291" x1="18.1589" y1="31.3991" x2="13.3952" y2="19.5614" gradientUnits="userSpaceOnUse">
<stop stop-color="#5F5E5D"/>
<stop offset="1" stop-color="#484848"/>
</linearGradient>
<linearGradient id="paint4_linear_32_291" x1="54.4883" y1="56.8592" x2="54.4883" y2="36.5057" gradientUnits="userSpaceOnUse">
<stop stop-color="#1A1A1A"/>
<stop offset="1" stop-color="#242423"/>
</linearGradient>
<linearGradient id="paint5_linear_32_291" x1="20.4737" y1="55.5133" x2="20.4737" y2="37.84" gradientUnits="userSpaceOnUse">
<stop stop-color="#2F2F2E"/>
<stop offset="1" stop-color="#2D2D2D"/>
</linearGradient>
<linearGradient id="paint6_linear_32_291" x1="38.9969" y1="39.3154" x2="42.6738" y2="51.6353" gradientUnits="userSpaceOnUse">
<stop stop-color="#5F5E5D"/>
<stop offset="1" stop-color="#484848"/>
</linearGradient>
<linearGradient id="paint7_linear_32_291" x1="40.0421" y1="41.5271" x2="33.0526" y2="61.543" gradientUnits="userSpaceOnUse">
<stop stop-color="#5F5E5D"/>
<stop offset="1" stop-color="#484848"/>
</linearGradient>
</defs>
</svg>
