<svg width="150" height="40" viewBox="0 0 150 40" fill="none" xmlns="http://www.w3.org/2000/svg">
<g clip-path="url(#clip0_3_57)">
<path d="M146.408 32.3105L137.672 21.9081L128.947 32.3105H125.352L135.853 19.7422L126.262 8.31785H129.857L137.672 17.6349L145.487 8.31863H149.08L139.496 19.743L150 32.3105H146.408ZM78.339 32.3066L67.8244 19.7406L77.4151 8.31628H73.821L66.0033 17.6357L58.1927 8.31863H54.6075L64.1938 19.743L53.6827 32.3066H57.2821L66.0077 21.9089L74.7405 32.3066H78.339Z" fill="#0F7C10"/>
<path d="M98.3255 20.649C97.7839 20.244 97.1805 19.9071 96.5329 19.6482C97.5267 19.185 98.3579 18.4929 98.9372 17.6465C99.5165 16.8 99.8221 15.8311 99.8211 14.8437C99.8211 13.3085 99.1763 8.31701 90.9323 8.31701H79.829V18.6591H76.1306C75.6517 19.2069 74.561 20.5262 74.1463 21.0669H79.8281V32.3065H90.934C96.9494 32.3065 100.685 29.6273 100.685 25.3025C100.712 24.4212 100.513 23.5458 100.105 22.7404C99.6966 21.9349 99.0883 21.2196 98.3246 20.6467L98.3255 20.649ZM82.896 10.8186H90.9314C93.1048 10.8186 96.7479 11.2936 96.7479 14.6309C96.7479 17.1544 94.6271 18.6576 90.9314 18.6576H82.896V10.8202V10.8186ZM90.9296 29.8041H82.8942V21.0731H90.9296C93.9752 21.0731 97.6183 21.811 97.6183 25.2516C97.6183 29.2133 93.4267 29.8065 90.9296 29.8065V29.8041ZM115.129 7.76535C107.448 7.76535 102.08 12.9188 102.08 20.3C102.08 27.6812 107.448 32.841 115.129 32.841C122.811 32.841 128.155 27.6906 128.155 20.3C128.155 12.9094 122.804 7.76535 115.128 7.76535H115.129ZM115.128 30.301C109.275 30.301 105.175 26.1859 105.175 20.2985C105.175 14.411 109.277 10.2983 115.128 10.2983C120.978 10.2983 125.046 14.411 125.046 20.2985C125.046 26.1859 120.97 30.301 115.128 30.301ZM6.80087 5.75123L6.77769 5.76766C2.83461 9.18232 0.444497 13.7405 0.0544864 18.5894C-0.335524 23.4383 1.30128 28.2458 4.6587 32.1125C4.67159 32.1295 4.69075 32.1422 4.713 32.1483C4.73524 32.1544 4.75921 32.1536 4.78089 32.1461C4.79929 32.135 4.81225 32.1182 4.81721 32.099C4.82216 32.0799 4.81875 32.0598 4.80764 32.0428C3.06947 27.3291 11.9503 15.9032 16.5405 11.1113C16.5587 11.0954 16.5706 11.0748 16.5744 11.0526C16.5729 11.0397 16.5683 11.0273 16.5609 11.0161C16.5536 11.0049 16.5436 10.9952 16.5316 10.9876C8.81194 4.24729 6.75093 5.79036 6.77769 5.76766L6.80087 5.75123ZM38.7854 5.75123L38.8068 5.76766C42.7491 9.18266 45.1388 13.7407 45.5288 18.5894C45.9188 23.4382 44.2824 28.2455 40.9257 32.1125C40.913 32.1296 40.8938 32.1424 40.8715 32.1485C40.8492 32.1546 40.8252 32.1538 40.8036 32.1461C40.7865 32.1341 40.7746 32.1173 40.7697 32.0985C40.7648 32.0798 40.7673 32.0602 40.7768 32.0428C42.5141 27.3283 33.6422 15.8938 29.0528 11.1019C29.0342 11.0869 29.0222 11.0667 29.019 11.0448C29.0196 11.0314 29.0238 11.0183 29.0312 11.0066C29.0386 10.9949 29.0491 10.9849 29.0618 10.9775C36.7841 4.23712 38.8308 5.79036 38.805 5.76766L38.7854 5.75123ZM22.7931 -5.25547e-05C26.9844 -0.0147749 31.0969 0.999168 34.666 2.92723C34.6851 2.93667 34.6995 2.95194 34.7066 2.97012C34.7137 2.9883 34.7129 3.00813 34.7044 3.02583C34.6936 3.04219 34.6766 3.05461 34.6562 3.0608C34.6359 3.06698 34.6137 3.06651 34.5938 3.05947C30.1819 2.22221 23.4736 5.56813 22.8413 5.90225C22.8279 5.91309 22.8104 5.9191 22.7922 5.9191C22.774 5.9191 22.7565 5.91309 22.7432 5.90225C21.0603 5.05482 14.8612 2.20343 10.9568 3.0806C10.9381 3.08265 10.9192 3.07947 10.9027 3.07151C10.8862 3.06355 10.873 3.05123 10.865 3.0363C10.857 3.02136 10.8546 3.00459 10.8581 2.98838C10.8616 2.97216 10.8709 2.95733 10.8845 2.94601C14.4611 1.00456 18.5874 -0.0162447 22.7931 -5.25547e-05V-5.25547e-05ZM22.7931 16.0409C22.8204 16.0443 22.8457 16.0553 22.8654 16.0722C29.686 20.6216 41.3592 31.8707 37.7954 35.0554L37.7999 35.0515V35.0554H37.7954C33.6425 38.245 28.311 40.0032 22.7918 40.0032C17.2725 40.0032 11.941 38.245 7.78813 35.0554L7.78367 35.0515L7.78813 35.0554C4.22974 31.8707 15.9011 20.6216 22.7146 16.0707C22.737 16.0536 22.7646 16.0427 22.794 16.0394" fill="#0F7C10"/>
</g>
<defs>
<clipPath id="clip0_3_57">
<rect width="150" height="40" fill="white"/>
</clipPath>
</defs>
</svg>
