<svg width="22" height="26" viewBox="0 0 22 26" fill="none" xmlns="http://www.w3.org/2000/svg">
<path d="M6.00006 7.218V5.218C6.00006 2.362 8.23006 0.0320015 11.0001 0.0320015C13.7701 0.0320015 16.0001 2.362 16.0001 5.218V7.218H19.4561C19.6144 7.21812 19.7668 7.27822 19.8826 7.38621C19.9984 7.49421 20.0689 7.64206 20.0801 7.8L21.2681 25.3C21.2785 25.4653 21.2232 25.6281 21.1142 25.7528C21.0052 25.8776 20.8513 25.9542 20.6861 25.966H1.35606C1.19056 25.966 1.03184 25.9003 0.914821 25.7832C0.797798 25.6662 0.732056 25.5075 0.732056 25.342V25.3L1.92006 7.8C1.9307 7.64171 2.00105 7.49336 2.11689 7.38495C2.23272 7.27654 2.3854 7.21615 2.54406 7.216L6.00006 7.218ZM7.87606 7.218H14.1261V5.218C14.1261 3.38 12.7261 1.906 11.0001 1.906C9.27406 1.906 7.87606 3.38 7.87606 5.218V7.218ZM2.69406 24.094H19.3061L18.2901 9.094H3.71206L2.69406 24.094Z" fill="black"/>
</svg>
