<svg width="26" height="26" viewBox="0 0 40 40" fill="none" xmlns="http://www.w3.org/2000/svg">
<path d="M22.3247 28.3512C28.2372 28.3512 33 23.5882 33 17.6756C33 11.763 28.2372 7 22.3247 7C16.4123 7 11.6495 11.763 11.6495 17.6756C11.6495 23.5882 16.4123 28.3512 22.3247 28.3512ZM22.3247 8.6424C27.3339 8.6424 31.3577 12.6663 31.3577 17.6756C31.3577 22.6849 27.3339 26.7088 22.3247 26.7088C17.3156 26.7088 13.2918 22.6849 13.2918 17.6756C13.2918 12.6663 17.3156 8.6424 22.3247 8.6424Z" fill="black" stroke="black" stroke-width="0.5"/>
<path d="M14.3741 24.4645L7 31.8388L8.16114 33L15.5353 25.6256L14.3741 24.4645Z" fill="black" stroke="black" stroke-width="0.5"/>
</svg>
